<?xml version="1.0" standalone="no"?>
<!DOCTYPE svg PUBLIC "-//W3C//DTD SVG 20010904//EN"
 "http://www.w3.org/TR/2001/REC-SVG-20010904/DTD/svg10.dtd">
<svg version="1.0" xmlns="http://www.w3.org/2000/svg"
 width="179.000000pt" height="165.000000pt" viewBox="0 0 179.000000 165.000000"
 preserveAspectRatio="xMidYMid meet">
<g transform="translate(0.000000,165.000000) scale(0.100000,-0.100000)"
fill="#000000" stroke="none">
<path d="M875 1613 c-14 -21 -25 -44 -25 -51 0 -7 -5 -10 -12 -6 -7 4 -8 3 -4
-5 9 -14 -12 -43 -25 -35 -5 3 -6 -2 -3 -10 3 -9 1 -16 -6 -16 -6 0 -8 -4 -5
-10 3 -5 2 -10 -4 -10 -6 0 -7 -7 -4 -17 5 -12 3 -14 -7 -8 -9 6 -11 4 -5 -4
4 -8 -1 -18 -13 -27 -12 -8 -19 -20 -16 -27 2 -6 -7 -24 -20 -38 -14 -15 -22
-30 -19 -33 4 -3 1 -6 -5 -6 -6 0 -14 5 -17 10 -8 13 -25 3 -25 -13 0 -8 3 -8
9 1 6 11 10 11 18 0 14 -17 0 -54 -26 -67 -10 -6 -18 -19 -17 -28 4 -25 -25
-68 -34 -53 -4 7 -7 1 -7 -14 -1 -15 -9 -36 -18 -46 -10 -11 -15 -20 -11 -20
8 0 -30 -57 -54 -80 -8 -8 -11 -12 -6 -7 23 17 27 5 6 -18 -13 -14 -19 -25
-14 -25 5 0 1 -5 -8 -11 -10 -5 -18 -17 -18 -25 0 -9 -9 -28 -20 -44 -11 -15
-16 -31 -12 -35 4 -5 0 -6 -8 -3 -11 4 -15 -2 -17 -20 0 -14 -7 -31 -15 -36
-7 -6 -14 -18 -16 -26 -2 -8 -10 -19 -18 -23 -8 -4 -14 -13 -14 -20 0 -7 4 -6
10 3 5 8 10 10 10 5 0 -13 -21 -35 -33 -35 -4 0 -5 6 -1 13 5 9 4 9 -6 0 -16
-15 -23 -46 -9 -37 5 3 6 10 3 16 -4 7 -2 8 4 4 12 -7 5 -36 -9 -36 -5 0 -8
-3 -8 -8 3 -20 -2 -33 -11 -27 -6 4 -9 3 -8 -2 2 -4 -3 -23 -11 -41 -9 -23
-19 -31 -29 -27 -12 4 -12 3 -3 -9 9 -11 8 -15 -4 -20 -9 -3 -15 -11 -13 -18
3 -19 -22 -59 -33 -53 -5 4 -9 3 -8 -2 1 -4 0 -11 -1 -15 -1 -5 -3 -11 -4 -15
-4 -21 -61 -123 -69 -123 -4 0 -5 -5 -1 -12 5 -8 1 -9 -12 -4 -15 6 -16 5 -7
-5 10 -10 9 -15 -5 -26 -11 -9 -11 -12 -2 -7 13 7 13 5 0 -12 -8 -10 -24 -36
-34 -56 -10 -21 -23 -35 -27 -32 -5 3 -6 -2 -3 -10 3 -9 1 -16 -6 -16 -6 0 -8
-5 -4 -12 5 -7 2 -9 -7 -6 -10 4 -15 -3 -16 -24 0 -18 2 -25 7 -18 5 8 9 8 13
-4 6 -14 97 -16 873 -16 476 0 870 -2 874 -5 5 -3 11 3 14 13 7 21 5 104 -2
97 -3 -3 -13 7 -22 23 -13 20 -15 31 -6 41 8 11 8 13 0 8 -13 -8 -37 16 -27
26 3 4 2 7 -4 7 -10 0 -26 36 -24 52 1 5 -4 7 -11 5 -7 -1 -12 3 -13 8 0 6 -7
21 -14 35 -14 24 -13 24 5 10 18 -14 18 -14 5 3 -8 10 -20 16 -28 13 -8 -4
-11 -1 -8 5 4 6 -1 20 -12 32 -15 19 -16 20 0 8 10 -8 17 -9 17 -3 0 11 -19
27 -32 27 -12 0 -21 15 -9 15 7 0 3 9 -8 22 -11 11 -18 26 -14 31 3 6 1 7 -5
3 -7 -4 -12 -1 -12 9 0 10 5 13 12 9 7 -4 8 -3 4 5 -4 6 -10 10 -14 7 -4 -2
-20 14 -35 36 -16 22 -24 37 -19 34 5 -3 9 1 9 8 0 9 -7 12 -16 8 -9 -3 -13
-2 -9 3 4 4 0 14 -10 21 -14 11 -15 13 -1 14 8 0 19 -3 25 -7 5 -5 1 0 -9 9
-10 10 -16 22 -12 28 3 5 0 7 -7 5 -8 -3 -22 8 -33 27 -10 18 -17 33 -15 33 3
0 -8 17 -24 37 -16 22 -26 44 -22 53 3 9 2 13 -4 10 -11 -7 -32 29 -22 40 4 5
1 5 -5 1 -11 -6 -18 6 -10 18 1 2 -6 13 -16 24 -11 12 -16 26 -11 33 4 7 3 10
-3 6 -12 -8 -26 20 -17 34 3 5 0 8 -8 7 -8 -2 -13 6 -12 18 0 16 -4 20 -15 16
-12 -4 -11 0 3 17 19 21 19 21 1 15 -13 -5 -16 -4 -11 4 4 7 -5 24 -21 41 -16
16 -27 34 -25 41 3 8 0 10 -8 5 -10 -6 -12 -4 -7 9 4 10 3 15 -3 11 -6 -3 -15
6 -20 20 -13 34 -13 38 3 29 7 -4 9 -3 4 2 -5 5 -12 9 -17 9 -5 0 -20 17 -34
38 -15 21 -21 35 -14 32 7 -4 5 0 -4 8 -10 8 -15 17 -11 21 4 4 3 10 -3 14
-12 8 -58 83 -60 97 0 5 -2 16 -2 23 -1 7 -6 11 -11 8 -14 -9 -23 26 -9 37 9
6 7 7 -8 4 -12 -2 -21 1 -21 8 0 18 -43 85 -54 85 -6 0 -7 4 -4 10 4 6 -1 7
-11 3 -12 -4 -15 -3 -10 5 4 7 5 12 2 12 -3 0 -17 -17 -31 -37z m236 -350
c100 -181 219 -393 264 -473 219 -388 398 -713 402 -728 4 -16 -52 -17 -871
-17 -482 0 -876 2 -876 5 0 3 6 14 14 25 14 21 362 642 436 780 23 44 73 134
110 200 37 66 122 218 189 337 67 120 119 224 116 230 -4 7 2 3 13 -9 11 -13
102 -170 203 -350z m129 -164 c6 -10 7 -19 2 -19 -5 0 -14 12 -20 26 -14 29 2
24 18 -7z"/>
<path d="M806 1404 c-49 -87 -125 -224 -168 -304 -44 -80 -93 -167 -110 -194
-16 -26 -28 -50 -26 -51 2 -2 25 10 52 26 26 17 116 69 199 117 l152 87 -5
239 -5 240 -89 -160z m73 -120 c1 -179 1 -186 -19 -191 -11 -3 -20 -10 -20
-15 0 -6 -7 -7 -16 -4 -8 3 -12 2 -9 -4 3 -6 -4 -15 -17 -20 -13 -5 -40 -22
-62 -36 -21 -14 -35 -20 -31 -12 5 7 -3 2 -18 -11 -14 -12 -30 -20 -37 -16 -6
3 -9 1 -8 -5 2 -7 -6 -14 -16 -16 -10 -1 -23 -9 -27 -16 -7 -10 -9 -10 -10 2
0 10 -3 8 -9 -5 -6 -13 -9 -15 -9 -5 0 20 24 52 33 43 4 -4 4 0 0 10 -3 10 -1
17 6 17 6 0 8 5 4 12 -5 8 -2 9 10 5 11 -4 15 -3 10 4 -7 12 14 59 35 75 8 7
11 16 6 24 -6 9 -4 11 5 5 9 -6 12 -4 8 6 -6 14 16 42 25 32 3 -2 4 3 3 13 -4
25 34 86 49 80 6 -2 18 0 26 6 11 8 10 9 -3 4 -10 -3 -18 -1 -18 5 0 6 -6 7
-12 3 -7 -4 -4 2 7 13 11 11 22 19 25 17 3 -1 7 7 7 19 1 12 7 23 12 25 5 2 7
10 4 19 -5 12 -3 14 7 8 10 -6 12 -4 7 8 -4 10 0 20 11 26 9 5 13 13 9 17 -5
6 19 44 28 44 1 0 3 -84 4 -186z"/>
<path d="M855 1441 c-3 -5 -2 -12 3 -15 5 -3 9 1 9 9 0 17 -3 19 -12 6z"/>
<path d="M840 1351 c0 -6 4 -13 10 -16 6 -3 7 1 4 9 -7 18 -14 21 -14 7z"/>
<path d="M920 1323 l0 -241 123 -73 c67 -39 155 -92 195 -117 40 -24 75 -43
77 -41 1 2 -16 38 -39 79 -24 41 -112 199 -196 350 -84 151 -155 277 -157 279
-1 2 -3 -104 -3 -236z m44 103 c-1 -10 1 -15 4 -11 9 8 43 -66 35 -78 -3 -6
-1 -7 5 -3 7 4 20 -10 34 -38 12 -26 26 -46 31 -46 5 0 3 -8 -4 -17 -7 -10
-10 -15 -5 -11 13 11 64 -54 58 -74 -1 -5 3 -8 9 -8 6 0 9 -7 5 -15 -3 -8 0
-14 7 -12 6 1 13 -8 15 -20 2 -13 8 -23 13 -23 5 0 9 -9 9 -20 0 -11 4 -20 9
-20 5 0 13 -10 17 -22 3 -12 15 -31 25 -42 24 -25 24 -45 2 -41 -10 1 -17 8
-15 15 1 6 -1 9 -6 6 -5 -3 -18 3 -28 13 -11 9 -26 15 -33 13 -9 -3 -11 0 -6
7 5 8 1 11 -11 9 -11 -2 -18 2 -16 10 1 6 -1 11 -5 10 -11 -3 -53 21 -83 46
-22 19 -23 19 -10 1 14 -20 14 -20 -7 -1 -13 10 -20 22 -18 26 3 5 -4 6 -14 3
-12 -3 -23 2 -29 14 -14 27 -12 355 2 350 6 -2 10 -12 10 -21z"/>
<path d="M907 1063 c-11 -11 -8 -451 3 -458 7 -4 10 75 10 229 0 130 -1 236
-3 236 -2 0 -7 -3 -10 -7z"/>
<path d="M797 984 c6 -16 19 -18 27 -5 3 5 -3 11 -13 14 -14 3 -18 1 -14 -9z"/>
<path d="M998 983 c7 -3 16 -2 19 1 4 3 -2 6 -13 5 -11 0 -14 -3 -6 -6z"/>
<path d="M780 954 c0 -10 -5 -14 -16 -10 -8 3 -12 2 -9 -3 10 -18 42 -8 37 11
-5 22 -12 23 -12 2z"/>
<path d="M718 913 c6 -2 18 -2 25 0 6 3 1 5 -13 5 -14 0 -19 -2 -12 -5z"/>
<path d="M962 890 c0 -14 2 -19 5 -12 2 6 2 18 0 25 -3 6 -5 1 -5 -13z"/>
<path d="M1127 899 c7 -7 15 -10 18 -7 3 3 -2 9 -12 12 -14 6 -15 5 -6 -5z"/>
<path d="M705 890 c27 -12 43 -12 25 0 -8 5 -22 9 -30 9 -10 0 -8 -3 5 -9z"/>
<path d="M570 835 c-11 -13 -10 -14 4 -9 9 3 16 10 16 15 0 13 -6 11 -20 -6z"/>
<path d="M1205 830 c6 -30 16 -40 12 -12 -2 12 -6 24 -10 28 -3 4 -4 -4 -2
-16z"/>
<path d="M410 692 c-82 -152 -224 -404 -294 -526 -25 -44 -45 -80 -43 -82 1
-1 47 24 102 55 55 32 146 84 203 115 l102 58 1 132 c0 72 0 184 -1 249 -1 64
1 117 5 117 3 0 48 -25 100 -57 l94 -56 -46 -29 c-25 -16 -46 -28 -48 -26 -1
2 -19 33 -39 70 -21 37 -42 71 -48 74 -11 7 23 -62 58 -117 l22 -36 -39 -23
c-22 -12 -38 -24 -35 -27 3 -3 21 5 41 17 20 12 37 21 39 19 2 -2 20 -37 41
-76 21 -40 41 -73 46 -73 8 0 -27 71 -68 137 -12 21 -11 24 19 39 18 9 41 23
50 31 15 13 27 8 122 -47 58 -34 106 -63 106 -65 0 -1 -43 -28 -96 -60 -52
-31 -93 -59 -90 -62 6 -6 105 52 191 112 59 41 197 125 206 125 8 0 10 -235 2
-245 -4 -6 -50 -34 -100 -62 l-93 -51 0 109 c0 70 -4 109 -11 109 -7 0 -9 -37
-7 -110 2 -61 1 -110 -1 -110 -6 0 -185 104 -196 114 -6 5 -9 55 -7 123 2 83
0 113 -8 108 -7 -4 -11 -40 -10 -98 1 -51 1 -98 1 -105 -1 -12 -55 14 -149 70
-18 11 -35 18 -38 15 -3 -3 38 -29 90 -59 53 -29 96 -55 96 -58 0 -3 -23 -18
-52 -33 -82 -46 -130 -78 -125 -84 3 -3 18 4 34 14 15 11 58 36 94 57 l67 36
32 -62 c48 -92 140 -251 152 -263 18 -17 0 25 -41 95 -85 144 -119 205 -116
209 2 2 39 -17 81 -43 43 -25 81 -47 85 -48 4 -2 9 -54 10 -116 2 -97 5 -112
18 -110 22 4 200 302 188 314 -2 3 -44 -65 -93 -150 -49 -85 -89 -154 -91
-153 -1 1 -3 49 -4 105 l-2 103 54 32 c30 18 75 45 101 60 l47 27 0 -111 c0
-62 3 -114 6 -117 3 -3 5 47 5 111 0 134 -3 128 106 188 67 37 96 59 78 59 -3
0 -40 -20 -81 -45 -40 -25 -76 -45 -79 -45 -4 0 70 143 82 159 2 2 18 -6 37
-18 19 -11 37 -21 41 -21 15 0 -7 21 -39 38 l-33 17 40 68 c22 37 39 70 36 72
-6 6 -78 -109 -78 -124 0 -16 -6 -14 -50 15 -22 15 -43 25 -46 22 -3 -3 12
-16 33 -29 21 -12 40 -24 41 -25 2 -1 -17 -44 -42 -95 l-47 -92 3 124 3 124
95 57 c52 32 98 58 102 58 4 0 8 -111 7 -247 0 -227 2 -249 18 -261 10 -7 94
-56 188 -108 93 -53 176 -100 183 -106 27 -23 19 0 -30 87 -28 50 -122 217
-208 372 l-157 283 -119 -69 c-66 -37 -157 -92 -204 -121 -47 -29 -90 -53 -96
-53 -6 0 -96 49 -200 110 -104 61 -198 115 -209 121 -18 9 -26 -2 -95 -126z
m40 -8 c-6 -6 -6 -14 -2 -18 4 -4 7 -83 7 -176 0 -93 -2 -166 -4 -164 -2 2
-13 -4 -24 -13 -15 -13 -18 -14 -12 -3 4 8 -2 6 -13 -5 -38 -36 -51 -45 -66
-45 -24 0 -46 -12 -40 -21 3 -5 0 -9 -7 -9 -7 0 -24 -10 -37 -22 -14 -13 -22
-18 -19 -12 3 6 0 11 -8 11 -8 0 -12 -4 -9 -8 2 -4 0 -10 -6 -14 -5 -3 -10 0
-11 7 0 7 -5 3 -11 -9 -6 -13 -18 -23 -26 -23 -12 0 -11 4 3 26 9 15 12 23 6
20 -7 -5 -9 -1 -5 8 3 9 10 14 14 11 4 -3 11 2 14 11 4 10 2 13 -7 8 -6 -4 -4
2 6 13 9 11 17 24 17 30 0 6 7 14 16 17 8 3 12 10 9 16 -3 6 8 24 25 41 17 17
24 29 16 26 -10 -4 -13 -1 -9 8 3 8 10 12 15 9 6 -4 9 -1 6 7 -3 8 2 19 9 24
8 6 15 18 16 26 2 9 11 29 22 45 11 16 20 31 20 34 2 17 27 50 35 45 4 -3 6 3
3 14 -3 10 1 22 8 26 8 6 10 4 4 -5 -6 -9 -4 -11 4 -6 7 5 10 14 7 22 -7 19
27 85 36 71 4 -6 3 -16 -2 -23z m935 6 c-3 -5 -2 -10 3 -12 8 -3 72 -121 72
-132 0 -4 -6 -4 -12 0 -8 4 -10 3 -5 -2 5 -5 14 -9 20 -9 7 0 12 -10 11 -22 0
-12 3 -20 7 -18 7 5 37 -35 41 -57 2 -7 8 -18 15 -25 6 -7 9 -23 6 -35 -4 -19
-3 -20 7 -8 10 13 11 12 7 -6 -3 -15 0 -21 12 -20 9 0 16 -6 16 -14 0 -8 5
-22 10 -30 5 -8 10 -19 10 -25 1 -5 7 -8 15 -7 8 2 12 1 8 -3 -4 -4 3 -24 16
-44 13 -20 21 -42 18 -50 -3 -9 0 -11 8 -6 9 5 11 4 6 -3 -5 -9 -13 -9 -29 0
-12 7 -26 11 -30 10 -5 -1 -6 2 -3 7 4 5 -4 13 -16 17 -13 4 -41 18 -63 32
-22 14 -42 25 -45 24 -3 -1 -5 5 -5 12 0 8 -4 18 -9 23 -5 4 -6 3 -2 -4 4 -8
1 -13 -9 -13 -10 0 -13 5 -9 12 5 7 3 8 -5 4 -7 -5 -21 0 -33 11 -11 10 -22
17 -24 15 -3 -1 -12 2 -22 8 -15 10 -15 11 3 6 18 -6 19 -5 3 7 -14 11 -17 33
-18 123 -2 161 -1 166 11 158 8 -4 8 -1 0 13 -15 28 -10 94 6 81 7 -6 11 -14
8 -18z"/>
<path d="M417 359 c7 -7 15 -10 18 -7 3 3 -2 9 -12 12 -14 6 -15 5 -6 -5z"/>
<path d="M1387 629 c7 -7 15 -10 18 -7 3 3 -2 9 -12 12 -14 6 -15 5 -6 -5z"/>
<path d="M1480 476 c0 -2 8 -10 18 -17 15 -13 16 -12 3 4 -13 16 -21 21 -21
13z"/>
<path d="M1606 232 c-3 -5 1 -9 9 -9 8 0 12 4 9 9 -3 4 -7 8 -9 8 -2 0 -6 -4
-9 -8z"/>
<path d="M1637 189 c7 -7 15 -10 18 -7 3 3 -2 9 -12 12 -14 6 -15 5 -6 -5z"/>
<path d="M626 783 c-6 -14 -5 -15 5 -6 7 7 10 15 7 18 -3 3 -9 -2 -12 -12z"/>
<path d="M842 780 c0 -14 2 -19 5 -12 2 6 2 18 0 25 -3 6 -5 1 -5 -13z"/>
<path d="M657 779 c7 -7 15 -10 18 -7 3 3 -2 9 -12 12 -14 6 -15 5 -6 -5z"/>
<path d="M1064 729 c-3 -6 -1 -16 6 -22 10 -9 11 -9 5 2 -4 8 -2 17 6 22 9 6
10 9 2 9 -6 0 -15 -5 -19 -11z"/>
<path d="M599 708 c11 -15 11 -21 0 -35 -12 -17 -12 -17 6 0 19 17 19 17 0 35
-18 16 -18 16 -6 0z"/>
<path d="M786 693 c-6 -14 -5 -15 5 -6 7 7 10 15 7 18 -3 3 -9 -2 -12 -12z"/>
<path d="M1006 694 c-5 -14 -4 -15 9 -4 17 14 19 20 6 20 -5 0 -12 -7 -15 -16z"/>
<path d="M1206 678 c3 -5 10 -6 15 -3 13 9 11 12 -6 12 -8 0 -12 -4 -9 -9z"/>
<path d="M1032 574 c10 -10 20 -15 24 -12 3 4 -5 12 -18 18 -22 12 -22 12 -6
-6z"/>
<path d="M566 555 c-11 -8 -15 -15 -9 -15 6 0 16 7 23 15 16 19 11 19 -14 0z"/>
<path d="M754 558 c3 -15 26 -23 26 -8 0 6 -4 9 -9 6 -5 -4 -12 -1 -14 4 -3 6
-4 5 -3 -2z"/>
<path d="M811 563 c-1 -17 16 -25 25 -12 4 7 3 9 -4 5 -5 -3 -13 0 -15 6 -4 9
-6 10 -6 1z"/>
<path d="M923 553 c9 -15 177 -116 183 -110 3 3 -34 29 -83 58 -111 66 -107
64 -100 52z"/>
<path d="M1025 539 c-4 -6 -5 -12 -2 -15 2 -3 7 2 10 11 7 17 1 20 -8 4z"/>
<path d="M741 524 c0 -11 3 -14 6 -6 3 7 2 16 -1 19 -3 4 -6 -2 -5 -13z"/>
<path d="M529 473 c-13 -16 -12 -17 4 -4 9 7 17 15 17 17 0 8 -8 3 -21 -13z"/>
<path d="M983 455 c0 -8 4 -12 9 -9 5 3 6 10 3 15 -9 13 -12 11 -12 -6z"/>
<path d="M606 447 c3 -10 9 -15 12 -12 3 3 0 11 -7 18 -10 9 -11 8 -5 -6z"/>
<path d="M995 431 c-3 -5 -2 -12 3 -15 5 -3 9 1 9 9 0 17 -3 19 -12 6z"/>
<path d="M1171 437 c2 -1 13 -9 24 -17 19 -14 19 -14 6 3 -7 9 -18 17 -24 17
-6 0 -8 -1 -6 -3z"/>
<path d="M560 421 c0 -6 4 -13 10 -16 6 -3 7 1 4 9 -7 18 -14 21 -14 7z"/>
<path d="M825 420 c-3 -5 -1 -10 4 -10 6 0 11 5 11 10 0 6 -2 10 -4 10 -3 0
-8 -4 -11 -10z"/>
<path d="M1027 419 c7 -7 15 -10 18 -7 3 3 -2 9 -12 12 -14 6 -15 5 -6 -5z"/>
<path d="M1140 416 c0 -4 153 -96 174 -105 5 -2 6 2 2 8 -4 6 -42 31 -84 56
-71 42 -92 51 -92 41z"/>
<path d="M680 300 c0 -60 4 -100 10 -100 6 0 10 40 10 100 0 60 -4 100 -10
100 -6 0 -10 -40 -10 -100z"/>
<path d="M1185 340 c-3 -5 -1 -10 4 -10 6 0 11 5 11 10 0 6 -2 10 -4 10 -3 0
-8 -4 -11 -10z"/>
<path d="M590 336 c0 -3 9 -10 20 -16 11 -6 20 -8 20 -6 0 3 -9 10 -20 16 -11
6 -20 8 -20 6z"/>
<path d="M797 329 c7 -7 15 -10 18 -7 3 3 -2 9 -12 12 -14 6 -15 5 -6 -5z"/>
<path d="M990 315 c0 -17 25 -20 35 -5 4 6 -1 7 -11 3 -12 -4 -15 -3 -10 5 4
7 2 12 -3 12 -6 0 -11 -7 -11 -15z"/>
<path d="M1227 299 c7 -7 15 -10 18 -7 3 3 -2 9 -12 12 -14 6 -15 5 -6 -5z"/>
<path d="M420 258 c-36 -21 -127 -73 -202 -114 -76 -42 -138 -78 -138 -80 0
-2 186 -4 412 -4 l413 0 -110 61 c-61 34 -150 84 -200 111 -49 28 -94 54 -100
58 -5 4 -39 -10 -75 -32z m110 -33 c8 -14 9 -15 6 -2 -5 16 -4 16 27 1 17 -9
45 -26 62 -38 16 -11 36 -21 44 -23 9 -1 17 -7 19 -13 2 -5 8 -8 13 -4 5 3 9
1 9 -5 0 -5 16 -15 35 -22 28 -10 32 -15 20 -22 -10 -5 -22 -4 -32 5 -13 10
-15 10 -9 0 6 -11 -40 -12 -247 -10 -140 2 -253 0 -250 -5 2 -4 -11 -6 -30 -5
-19 2 -33 7 -30 11 3 5 11 6 19 3 8 -3 14 -2 14 2 0 13 54 41 75 39 14 -1 19
3 17 17 -2 10 1 15 7 12 5 -4 13 -1 16 5 4 5 13 8 21 5 9 -3 14 1 15 12 0 10
3 12 6 5 3 -8 13 -3 29 14 13 14 24 22 24 17 0 -5 4 -4 8 1 4 6 18 17 31 26
29 18 63 7 81 -26z"/>
<path d="M461 247 c-8 -11 -6 -13 12 -13 13 1 21 -4 19 -12 -1 -8 2 -11 8 -7
8 5 6 13 -6 26 -20 23 -19 22 -33 6z"/>
<path d="M1128 181 c-102 -58 -190 -109 -194 -114 -4 -4 176 -7 401 -7 225 0
406 2 404 4 -15 14 -403 226 -412 225 -7 -1 -96 -49 -199 -108z m238 68 c19
-11 32 -25 29 -30 -4 -5 1 -6 10 -3 22 9 101 -46 83 -57 -9 -6 -10 -9 -1 -9 6
0 15 4 18 10 4 6 13 5 25 -2 10 -7 16 -16 13 -22 -4 -5 2 -7 13 -4 23 6 51
-19 37 -33 -11 -11 -583 -17 -576 -6 2 4 8 5 13 2 5 -3 14 1 22 8 25 24 71 50
63 36 -3 -8 0 -6 8 4 8 9 20 17 26 17 7 0 9 5 5 11 -4 7 2 6 17 -2 23 -12 23
-11 9 6 -8 10 -9 16 -3 11 7 -4 25 3 42 15 16 12 34 18 40 14 7 -4 10 -1 9 7
-2 8 6 13 19 12 12 0 20 3 17 8 -3 4 2 8 11 8 9 0 13 5 10 10 -10 16 5 12 41
-11z m251 -154 c0 -8 -4 -15 -9 -15 -10 0 -11 14 -1 23 9 10 10 9 10 -8z"/>
<path d="M1443 161 c1 -12 6 -17 16 -13 10 4 11 7 3 10 -7 2 -10 8 -6 13 3 5
1 9 -5 9 -5 0 -9 -9 -8 -19z"/>
<path d="M855 249 c-4 -6 -5 -12 -2 -15 2 -3 7 2 10 11 7 17 1 20 -8 4z"/>
<path d="M1047 203 c-10 -10 -8 -23 4 -23 5 0 7 5 3 12 -5 8 -2 9 10 5 10 -4
15 -3 11 3 -7 12 -19 13 -28 3z"/>
<path d="M772 184 c10 -10 20 -16 22 -13 3 3 -5 11 -17 18 -21 13 -21 12 -5
-5z"/>
<path d="M1080 1396 c0 -8 4 -17 9 -20 5 -4 7 3 4 14 -6 23 -13 26 -13 6z"/>
<path d="M1309 993 c-13 -16 -12 -17 3 -5 9 8 23 10 29 6 8 -4 9 -3 5 4 -10
17 -21 15 -37 -5z"/>
<path d="M330 750 c-6 -11 -8 -20 -6 -20 3 0 10 9 16 20 6 11 8 20 6 20 -3 0
-10 -9 -16 -20z"/>
<path d="M352 740 c-18 -29 -15 -38 4 -12 9 13 14 25 12 27 -2 2 -9 -5 -16
-15z"/>
</g>
</svg>
